# xmcd
#
# Track frame offsets: 
#        150
#        22802
#        43635
#        70195
#        88246
#        111352
#        127655
#        145930
#        165121
#        185954
#
# Disc length: 2673 seconds
#
# Revision: 4
# Processed by: cddbd v1.5.2PL0 Copyright (c) Steve Scherf et al.
# Submitted via: ExactAudioCopy v0.99pb4
#
DISCID=800a6f0a
DTITLE=薩頂頂 - 萬物生 alive
DYEAR=2007
DGENRE=New Age
TTITLE0=媽媽天那 (藏文) (Mama Tian Na (Tibetan))
TTITLE1=萬物生 (梵文) (Alive (Mantra))
TTITLE2=神香 (藏文)(電影<喜馬拉雅王子>主題歌) (Holy incense (Tibetan))
TTITLE3=錫林河邊的老人 (自語) (Oldster by Xilin River (Self-created la
TTITLE3=nguage))
TTITLE4=陀羅尼 (梵文) (Tuo luo ni (Sanskrit))
TTITLE5=拉古拉古 (自語) (Lagu lagu (Self-created language))
TTITLE6=飛鳥和花 (Flickering with blossoms (Chinese version))
TTITLE7=神香 (Holy incense (Chinese version))
TTITLE8=萬物生 (Alive (Chinese version))
TTITLE9=琴傷 (Qin shang (Chinese version))
EXTD=YEAR: 2007
EXTT0=
EXTT1=
EXTT2=
EXTT3=
EXTT4=
EXTT5=
EXTT6=
EXTT7=
EXTT8=
EXTT9=
PLAYORDER=
